<?xml version="1.0" encoding="utf-8"?>
<!-- Generator: Adobe Illustrator 21.0.2, SVG Export Plug-In . SVG Version: 6.00 Build 0)  -->
<svg version="1.1" id="Layer_1" xmlns="http://www.w3.org/2000/svg" xmlns:xlink="http://www.w3.org/1999/xlink" x="0px" y="0px"
	 viewBox="0 0 512 512" style="enable-background:new 0 0 512 512;" xml:space="preserve">
<style type="text/css">
	.st0{fill:#FFFFFF;}
</style>
<g>
	<g>
		<path class="st0" d="M505.7,145.6l-12.9-17h-82.7c-7.1,0-12.9-5.8-12.9-12.9s5.8-12.9,12.9-12.9h63.2l-8.7-11.5
			c-14.2-18.7-34.4-31.6-56.8-36.7H0v140.7h480.9c17.2,0,31.1-13.9,31.1-31.1C512,157.6,509.8,151,505.7,145.6z M166.9,128.6h-22.2
			c-7.1,0-12.9-5.8-12.9-12.9s5.8-12.9,12.9-12.9h22.2c7.1,0,12.9,5.8,12.9,12.9S174,128.6,166.9,128.6z M252.9,128.6h-22.2
			c-7.1,0-12.9-5.8-12.9-12.9s5.8-12.9,12.9-12.9h22.2c7.1,0,12.9,5.8,12.9,12.9S260,128.6,252.9,128.6z M338.9,128.6h-22.2
			c-7.1,0-12.9-5.8-12.9-12.9s5.8-12.9,12.9-12.9h22.2c7.1,0,12.9,5.8,12.9,12.9S346,128.6,338.9,128.6z"/>
	</g>
</g>
<g>
	<g>
		<path class="st0" d="M483.5,218.1H26.1c-10.6,0-19.3,8.6-19.3,19.3s8.6,19.3,19.3,19.3h457.4c10.6,0,19.3-8.6,19.3-19.3
			C502.7,226.7,494.1,218.1,483.5,218.1z"/>
	</g>
</g>
</svg>
